<svg id="Gradient" height="512" viewBox="0 0 512 512" width="512" xmlns="http://www.w3.org/2000/svg" xmlns:xlink="http://www.w3.org/1999/xlink"><linearGradient id="linear-gradient" gradientUnits="userSpaceOnUse" x1="256" x2="256" y1="496" y2="16"><stop offset="0" stop-color="#12bee5"/><stop offset=".5" stop-color="#c071e9"/><stop offset="1" stop-color="#f24f5a"/></linearGradient><path d="m168 160h224a8 8 0 0 0 8-8v-80a8 8 0 0 0 -8-8h-224a8 8 0 0 0 -8 8v80a8 8 0 0 0 8 8zm8-80h208v64h-208zm176 112a8 8 0 0 1 0 16h-144a8 8 0 0 1 0-16zm0 144h-144a8 8 0 0 1 0-16h144a8 8 0 0 1 0 16zm-208-104a8 8 0 0 1 8-8h256a8 8 0 0 1 0 16h-256a8 8 0 0 1 -8-8zm0 32a8 8 0 0 1 8-8h256a8 8 0 0 1 0 16h-256a8 8 0 0 1 -8-8zm264 40h-256a8 8 0 0 1 0-16h256a8 8 0 0 1 0 16zm16 136a8 8 0 0 1 -8 8h-112a8 8 0 0 1 0-16h112a8 8 0 0 1 8 8zm-8-40a8 8 0 0 1 0 16h-112a8 8 0 0 1 0-16zm-352 96h400a8 8 0 0 0 8-8v-464a8 8 0 0 0 -8-8h-400a24.028 24.028 0 0 0 -24 24v432a24.028 24.028 0 0 0 24 24zm392-16h-352v-448h352zm-400-440a8.009 8.009 0 0 1 8-8h24v448h-24a8.009 8.009 0 0 1 -8-8z" fill="url(#linear-gradient)"/></svg>