<svg id="Gradient" height="512" viewBox="0 0 512 512" width="512" xmlns="http://www.w3.org/2000/svg" xmlns:xlink="http://www.w3.org/1999/xlink"><linearGradient id="linear-gradient" gradientUnits="userSpaceOnUse" x1="256" x2="256" y1="496" y2="16"><stop offset="0" stop-color="#12bee5"/><stop offset=".5" stop-color="#c071e9"/><stop offset="1" stop-color="#f24f5a"/></linearGradient><path d="m56 40v432a24.028 24.028 0 0 0 24 24h320a40.045 40.045 0 0 0 40-40v-161.376a24.038 24.038 0 0 0 16-22.624v-32a24.038 24.038 0 0 0 -16-22.624v-161.376a40.045 40.045 0 0 0 -40-40h-320a24.028 24.028 0 0 0 -24 24zm384 232a8.009 8.009 0 0 1 -8 8h-72v-48h72a8.009 8.009 0 0 1 8 8zm-112-240h48v136l-19.2-14.4a8 8 0 0 0 -9.6 0l-19.2 14.4zm-224 0h208v152a8 8 0 0 0 12.8 6.4l27.2-20.4 27.2 20.4a8 8 0 0 0 12.8-6.4v-152h8a24.028 24.028 0 0 1 24 24v160h-104a8 8 0 0 0 -8 8v64a8 8 0 0 0 8 8h104v160a24.028 24.028 0 0 1 -24 24h-296zm224 248v-48h16v48zm-256-240a8.009 8.009 0 0 1 8-8h8v448h-8a8.009 8.009 0 0 1 -8-8zm352 216a8 8 0 1 1 -8-8 8 8 0 0 1 8 8zm-144-184a8 8 0 0 1 -8 8h-128a8 8 0 0 1 0-16h128a8 8 0 0 1 8 8zm0 32a8 8 0 0 1 -8 8h-128a8 8 0 0 1 0-16h128a8 8 0 0 1 8 8zm0 32a8 8 0 0 1 -8 8h-128a8 8 0 0 1 0-16h128a8 8 0 0 1 8 8z" fill="url(#linear-gradient)"/></svg>