<svg id="Gradient" height="512" viewBox="0 0 512 512" width="512" xmlns="http://www.w3.org/2000/svg" xmlns:xlink="http://www.w3.org/1999/xlink"><linearGradient id="linear-gradient" gradientUnits="userSpaceOnUse" x1="256" x2="256" y1="496" y2="16"><stop offset="0" stop-color="#12c2e9"/><stop offset=".5" stop-color="#c471ed"/><stop offset="1" stop-color="#f64f59"/></linearGradient><path d="m256.011 16h-.011a160.035 160.035 0 0 0 -138.868 239.516 161.029 161.029 0 0 0 55.644 57.149 23.857 23.857 0 0 1 11.224 20.315v4.4a23.977 23.977 0 0 0 -9.869 38.62 23.943 23.943 0 0 0 0 32 23.977 23.977 0 0 0 9.869 38.624v9.376a40.045 40.045 0 0 0 40 40h64a40.045 40.045 0 0 0 40-40v-9.376a23.977 23.977 0 0 0 9.869-38.624 23.943 23.943 0 0 0 0-32 23.977 23.977 0 0 0 -9.869-38.624v-4.4a23.955 23.955 0 0 1 11.568-20.523 159.891 159.891 0 0 0 76.432-136.453c0-88.218-71.771-159.994-159.989-160zm-64.011 336h128a8 8 0 0 1 0 16h-128a8 8 0 0 1 0-16zm40-96h-8a8 8 0 1 1 8-8zm16 16h16v64h-16zm80 120a8.009 8.009 0 0 1 -8 8h-128a8 8 0 0 1 0-16h128a8.009 8.009 0 0 1 8 8zm-40 88h-64a24.027 24.027 0 0 1 -24-24v-8h112v8a24.027 24.027 0 0 1 -24 24zm32-48h-128a8 8 0 0 1 0-16h128a8 8 0 0 1 0 16zm11.2-133.183a39.85 39.85 0 0 0 -19.2 34.16v3.023h-32v-64h8a24 24 0 1 0 -24-24v8h-16v-8a24 24 0 1 0 -24 24h8v64h-32v-3.02a39.95 39.95 0 0 0 -18.891-33.973 143.982 143.982 0 0 1 74.891-267.007h.011c79.395.006 143.989 64.6 143.989 144a143.156 143.156 0 0 1 -68.8 122.817zm-51.2-42.817v-8a8 8 0 1 1 8 8zm104-80v8a8 8 0 0 1 -16 0v-8a112.127 112.127 0 0 0 -112-112h-8a8 8 0 0 1 0-16h8a128.145 128.145 0 0 1 128 128z" fill="url(#linear-gradient)"/></svg>