<svg id="Filled" height="512" viewBox="0 0 512 512" width="512" xmlns="http://www.w3.org/2000/svg"><path d="m432 368-32 16v24 56l32 16 32-16v-56-24z" fill="#88c791"/><path d="m432 256-32 16v24 56l32 16 32-16v-56-24z" fill="#ed6f6d"/><path d="m432 144-32 16v24 56l32 16 32-16v-56-24z" fill="#ffe76c"/><path d="m432 32-32 16v24 56l32 16 32-16v-56-24z" fill="#a3d4f7"/><path d="m80 24a16 16 0 0 0 -16 16v432a16 16 0 0 0 16 16h352v-464z" fill="#fbe9d8"/><path d="m80 24h16a0 0 0 0 1 0 0v464a0 0 0 0 1 0 0h-16a16 16 0 0 1 -16-16v-432a16 16 0 0 1 16-16z" fill="#bfb1a3"/><g fill="#7e8589"><rect height="32" rx="16" width="80" x="48" y="80"/><rect height="32" rx="16" width="80" x="48" y="160"/><rect height="32" rx="16" width="80" x="48" y="240"/><rect height="32" rx="16" width="80" x="48" y="320"/><rect height="32" rx="16" width="80" x="48" y="400"/></g><path d="m40 416a24.039 24.039 0 0 0 16 22.624v33.376a24.027 24.027 0 0 0 24 24h352a8 8 0 0 0 8-8v-3.056l27.578-13.789a8 8 0 0 0 4.422-7.155v-80a8 8 0 0 0 -4.422-7.155l-17.689-8.845 17.689-8.845a8 8 0 0 0 4.422-7.155v-80a8 8 0 0 0 -4.422-7.155l-17.689-8.845 17.689-8.845a8 8 0 0 0 4.422-7.155v-80a8 8 0 0 0 -4.422-7.155l-17.689-8.845 17.689-8.845a8 8 0 0 0 4.422-7.155v-80a8 8 0 0 0 -4.422-7.155l-27.578-13.789v-3.056a8 8 0 0 0 -8-8h-352a24.027 24.027 0 0 0 -24 24v33.376a24 24 0 0 0 0 45.248v34.752a24 24 0 0 0 0 45.248v34.752a24 24 0 0 0 0 45.248v34.752a24 24 0 0 0 0 45.248v34.752a24.039 24.039 0 0 0 -16 22.624zm48-56v32h-16v-32zm-24 48h48a8 8 0 0 1 0 16h-48a8 8 0 0 1 0-16zm8 64v-32h16v40h-8a8.009 8.009 0 0 1 -8-8zm384-12.944-16 8v-86.112l16 8zm0-112-16 8v-86.112l16 8zm0-112-16 8v-86.112l16 8zm0-182.112v70.112l-16 8v-86.112zm-32-20.944v448h-320v-40h8a24 24 0 0 0 0-48h-8v-32h8a24 24 0 0 0 0-48h-8v-32h8a24 24 0 0 0 0-48h-8v-32h8a24 24 0 0 0 0-48h-8v-32h8a24 24 0 0 0 0-48h-8v-40zm-336 248v32h-16v-32zm0-80v32h-16v-32zm0-80v32h-16v-32zm-8-88h8v40h-16v-32a8.009 8.009 0 0 1 8-8zm-16 56h48a8 8 0 0 1 0 16h-48a8 8 0 0 1 0-16zm0 80h48a8 8 0 0 1 0 16h-48a8 8 0 0 1 0-16zm0 80h48a8 8 0 0 1 0 16h-48a8 8 0 0 1 0-16zm0 80h48a8 8 0 0 1 0 16h-48a8 8 0 0 1 0-16z"/><path d="m384 72h-224a8 8 0 0 1 0-16h224a8 8 0 0 1 0 16z"/><path d="m384 104h-224a8 8 0 0 1 0-16h224a8 8 0 0 1 0 16z"/><path d="m384 136h-224a8 8 0 0 1 0-16h224a8 8 0 0 1 0 16z"/><path d="m384 168h-224a8 8 0 0 1 0-16h224a8 8 0 0 1 0 16z"/><path d="m384 200h-224a8 8 0 0 1 0-16h224a8 8 0 0 1 0 16z"/><path d="m384 232h-224a8 8 0 0 1 0-16h224a8 8 0 0 1 0 16z"/><path d="m384 264h-224a8 8 0 0 1 0-16h224a8 8 0 0 1 0 16z"/><path d="m384 296h-224a8 8 0 0 1 0-16h224a8 8 0 0 1 0 16z"/><path d="m384 328h-224a8 8 0 0 1 0-16h224a8 8 0 0 1 0 16z"/><path d="m384 360h-224a8 8 0 0 1 0-16h224a8 8 0 0 1 0 16z"/><path d="m384 392h-224a8 8 0 0 1 0-16h224a8 8 0 0 1 0 16z"/><path d="m384 424h-224a8 8 0 0 1 0-16h224a8 8 0 0 1 0 16z"/><path d="m384 456h-224a8 8 0 0 1 0-16h224a8 8 0 0 1 0 16z"/></svg>