<?xml version="1.0"?>
<svg xmlns="http://www.w3.org/2000/svg" xmlns:xlink="http://www.w3.org/1999/xlink" id="Gradient" viewBox="0 0 512 512" width="512" height="512"><defs><linearGradient id="linear-gradient" x1="256" y1="496" x2="256" y2="16" gradientUnits="userSpaceOnUse"><stop offset="0" stop-color="#12c2e9"/><stop offset="0.5" stop-color="#c471ed"/><stop offset="1" stop-color="#f64f59"/></linearGradient></defs><path d="M128,208a8,8,0,1,1,8,8A8,8,0,0,1,128,208Zm80,0a8,8,0,1,0,8-8A8,8,0,0,0,208,208Zm288,88V488a8,8,0,0,1-8,8H24a8,8,0,0,1-8-8V344a40.045,40.045,0,0,1,40-40h62.369a112.769,112.769,0,0,1-43.548-48H72a39.979,39.979,0,0,1-28.494-68.043A122.865,122.865,0,0,1,32,136C32,69.832,84.4,16,148.8,16a114.692,114.692,0,0,1,74.461,27.551,67.627,67.627,0,0,1,18.8-2.662c42.977,0,77.942,40.805,77.942,90.963a101.972,101.972,0,0,1-14.706,53.193A39.978,39.978,0,0,1,280,256h-2.821a112.769,112.769,0,0,1-43.548,48H272v-8a8,8,0,0,1,8-8H488A8,8,0,0,1,496,296Zm-208,8V448H480V304ZM145.835,320c4.4,9.311,16.26,16,30.165,16s25.762-6.689,30.165-16ZM304,216a24.039,24.039,0,0,0-16-22.624V208a111.652,111.652,0,0,1-4.592,31.754A24.035,24.035,0,0,0,304,216ZM242.058,56.889A51.607,51.607,0,0,0,231.48,58l.249.067c-.315,1.183-7.389,27.151-26.946,55.353C220.953,127.423,247.686,145,280,145a8,8,0,0,1,8,8v23.8c1.053.214,2.09.475,3.112.771A85.6,85.6,0,0,0,304,131.852C304,90.517,276.213,56.889,242.058,56.889ZM56.97,178.938A39.59,39.59,0,0,1,64,176.8V176a8,8,0,0,1,8-8c46.955,0,85.416-18.986,114.315-56.431A189.54,189.54,0,0,0,215.1,57.7,98.826,98.826,0,0,0,148.8,32C93.219,32,48,78.654,48,136A106.954,106.954,0,0,0,56.97,178.938ZM112,208a24,24,0,1,0,24-24A24.028,24.028,0,0,0,112,208Zm-4.93-27.579a165.856,165.856,0,0,1-27.07,3.4V200H96.805A39.933,39.933,0,0,1,107.07,180.421ZM68.592,239.754A111.652,111.652,0,0,1,64,208V193.376a24,24,0,0,0,4.592,46.378ZM176,304a96.127,96.127,0,0,0,95.664-88H255.2a40,40,0,1,1,0-16H272V160.7c-33.089-2.506-60.014-20.065-76.9-34.505a160.392,160.392,0,0,1-53.054,42.266A40,40,0,1,1,96.805,216H80.336A96.127,96.127,0,0,0,176,304Zm40-120a24,24,0,1,0,24,24A24.028,24.028,0,0,0,216,184ZM168,464v16h22.624A24.039,24.039,0,0,0,168,464Zm-16,0a24.039,24.039,0,0,0-22.624,16H152Zm96-16h24V320H223.034c-4.46,18.235-23.853,32-47.034,32s-42.574-13.765-47.034-32H56a24.028,24.028,0,0,0-24,24V480h80.805A40.069,40.069,0,0,1,152,448h16A40.069,40.069,0,0,1,207.2,480H240V456A8,8,0,0,1,248,448Zm232,16H256v16H480ZM312,336h16a8,8,0,0,0,0-16H312a8,8,0,0,0,0,16Zm0,32h16a8,8,0,0,0,0-16H312a8,8,0,0,0,0,16Zm80,16H376a8,8,0,0,0,0,16h16a8,8,0,0,0,0-16Zm-80,16a8,8,0,1,0-8-8A8,8,0,0,0,312,400Zm80-32h16a8,8,0,0,0,0-16H392a8,8,0,0,0,0,16Zm-32-32h16a8,8,0,0,0,0-16H360a8,8,0,0,0,0,16Zm48,0a8,8,0,1,0-8-8A8,8,0,0,0,408,336Zm-48,32a8,8,0,1,0-8-8A8,8,0,0,0,360,368Zm-48,64a8,8,0,1,0-8-8A8,8,0,0,0,312,432Zm32-32a8,8,0,1,0-8-8A8,8,0,0,0,344,400Zm48,16a8,8,0,1,0,8,8A8,8,0,0,0,392,416Zm32,0a8,8,0,1,0,8,8A8,8,0,0,0,424,416Zm0-16a8,8,0,1,0-8-8A8,8,0,0,0,424,400Zm16-32a8,8,0,1,0-8-8A8,8,0,0,0,440,368Zm-80,48H344a8,8,0,0,0,0,16h16a8,8,0,0,0,0-16ZM195.562,257.344c-13.345,8.9-25.779,8.9-39.124,0a8,8,0,1,0-8.876,13.312c9.3,6.2,18.871,9.3,28.438,9.3s19.136-3.1,28.438-9.3a8,8,0,0,0-8.876-13.312Z" style="fill:url(#linear-gradient)"/></svg>
